<?xml version="1.0" encoding="utf-8"?>
<!-- Generator: Adobe Illustrator 16.0.0, SVG Export Plug-In . SVG Version: 6.00 Build 0)  -->
<!DOCTYPE svg PUBLIC "-//W3C//DTD SVG 1.1//EN" "http://www.w3.org/Graphics/SVG/1.1/DTD/svg11.dtd">
<svg version="1.1" id="Layer_1" focusable="false" xmlns="http://www.w3.org/2000/svg" xmlns:xlink="http://www.w3.org/1999/xlink"
	 x="0px" y="0px" width="1080px" height="1920px" viewBox="0 0 1080 1920" enable-background="new 0 0 1080 1920"
	 xml:space="preserve">
<path fill="#FFFFFF" d="M540.241,682.768c-153.321,0-276.991,123.67-276.991,276.991s123.67,276.991,276.991,276.991
	s276.991-123.67,276.991-276.991S693.563,682.768,540.241,682.768z M540.241,1139.839c-99.08,0-180.08-80.759-180.08-180.08
	s80.759-180.08,180.08-180.08s180.08,80.759,180.08,180.08S639.321,1139.839,540.241,1139.839z M893.17,671.438
	c0,35.92-28.929,64.607-64.607,64.607c-35.92,0-64.607-28.929-64.607-64.607s28.929-64.607,64.607-64.607
	S893.17,635.759,893.17,671.438z M1076.625,737.009c-4.098-86.545-23.866-163.205-87.268-226.366
	c-63.161-63.16-139.821-82.929-226.366-87.268c-89.196-5.063-356.545-5.063-445.741,0c-86.304,4.099-162.964,23.866-226.366,87.026
	C27.482,573.563,7.956,650.224,3.616,736.768c-5.063,89.196-5.063,356.545,0,445.741c4.098,86.545,23.866,163.205,87.268,226.366
	c63.402,63.16,139.822,82.929,226.366,87.268c89.196,5.063,356.545,5.063,445.741,0c86.545-4.098,163.205-23.866,226.366-87.268
	c63.16-63.161,82.929-139.821,87.268-226.366C1081.688,1093.313,1081.688,826.205,1076.625,737.009z M961.393,1278.214
	c-18.803,47.25-55.205,83.652-102.696,102.697c-71.116,28.205-239.866,21.696-318.455,21.696c-78.59,0-247.581,6.268-318.456-21.696
	c-47.25-18.804-83.652-55.206-102.696-102.697c-28.206-71.115-21.697-239.865-21.697-318.455c0-78.589-6.268-247.58,21.697-318.455
	c18.803-47.25,55.205-83.652,102.696-102.696c71.116-28.206,239.866-21.697,318.456-21.697c78.589,0,247.58-6.268,318.455,21.697
	c47.25,18.804,83.652,55.205,102.696,102.696c28.206,71.116,21.697,239.866,21.697,318.455
	C983.09,1038.349,989.599,1207.339,961.393,1278.214z"/>
</svg>
