<svg width="264" height="259" viewBox="0 0 264 259" fill="none" xmlns="http://www.w3.org/2000/svg">
<path d="M28.6532 195.896C28.9092 195.896 29.1332 196 29.3252 196.208L31.1732 198.2C29.7652 199.832 28.0532 201.104 26.0372 202.016C24.0372 202.928 21.6132 203.384 18.7652 203.384C16.3012 203.384 14.0612 202.96 12.0452 202.112C10.0292 201.248 8.30919 200.048 6.88519 198.512C5.46119 196.96 4.35719 195.104 3.57319 192.944C2.78919 190.784 2.39719 188.408 2.39719 185.816C2.39719 183.224 2.80519 180.848 3.62119 178.688C4.43719 176.528 5.58119 174.672 7.05319 173.12C8.54119 171.568 10.3172 170.368 12.3812 169.52C14.4452 168.656 16.7252 168.224 19.2212 168.224C21.6692 168.224 23.8292 168.616 25.7012 169.4C27.5732 170.184 29.2212 171.248 30.6452 172.592L29.1092 174.728C29.0132 174.888 28.8852 175.024 28.7252 175.136C28.5812 175.232 28.3812 175.28 28.1252 175.28C27.8372 175.28 27.4852 175.128 27.0692 174.824C26.6532 174.504 26.1092 174.152 25.4372 173.768C24.7652 173.384 23.9252 173.04 22.9172 172.736C21.9092 172.416 20.6692 172.256 19.1972 172.256C17.4212 172.256 15.7972 172.568 14.3252 173.192C12.8532 173.8 11.5812 174.688 10.5092 175.856C9.45319 177.024 8.62919 178.448 8.03719 180.128C7.44519 181.808 7.14919 183.704 7.14919 185.816C7.14919 187.96 7.45319 189.872 8.06119 191.552C8.68519 193.232 9.52519 194.656 10.5812 195.824C11.6532 196.976 12.9092 197.856 14.3492 198.464C15.8052 199.072 17.3732 199.376 19.0532 199.376C20.0772 199.376 20.9972 199.32 21.8132 199.208C22.6452 199.08 23.4052 198.888 24.0932 198.632C24.7972 198.376 25.4452 198.056 26.0372 197.672C26.6452 197.272 27.2452 196.8 27.8372 196.256C28.1092 196.016 28.3812 195.896 28.6532 195.896ZM67.6914 185.816C67.6914 188.392 67.2834 190.76 66.4674 192.92C65.6514 195.064 64.4994 196.912 63.0114 198.464C61.5234 200.016 59.7314 201.224 57.6354 202.088C55.5554 202.936 53.2514 203.36 50.7234 203.36C48.1954 203.36 45.8914 202.936 43.8114 202.088C41.7314 201.224 39.9474 200.016 38.4594 198.464C36.9714 196.912 35.8194 195.064 35.0034 192.92C34.1874 190.76 33.7794 188.392 33.7794 185.816C33.7794 183.24 34.1874 180.88 35.0034 178.736C35.8194 176.576 36.9714 174.72 38.4594 173.168C39.9474 171.6 41.7314 170.384 43.8114 169.52C45.8914 168.656 48.1954 168.224 50.7234 168.224C53.2514 168.224 55.5554 168.656 57.6354 169.52C59.7314 170.384 61.5234 171.6 63.0114 173.168C64.4994 174.72 65.6514 176.576 66.4674 178.736C67.2834 180.88 67.6914 183.24 67.6914 185.816ZM62.9154 185.816C62.9154 183.704 62.6274 181.808 62.0514 180.128C61.4754 178.448 60.6594 177.032 59.6034 175.88C58.5474 174.712 57.2674 173.816 55.7634 173.192C54.2594 172.568 52.5794 172.256 50.7234 172.256C48.8834 172.256 47.2114 172.568 45.7074 173.192C44.2034 173.816 42.9154 174.712 41.8434 175.88C40.7874 177.032 39.9714 178.448 39.3954 180.128C38.8194 181.808 38.5314 183.704 38.5314 185.816C38.5314 187.928 38.8194 189.824 39.3954 191.504C39.9714 193.168 40.7874 194.584 41.8434 195.752C42.9154 196.904 44.2034 197.792 45.7074 198.416C47.2114 199.024 48.8834 199.328 50.7234 199.328C52.5794 199.328 54.2594 199.024 55.7634 198.416C57.2674 197.792 58.5474 196.904 59.6034 195.752C60.6594 194.584 61.4754 193.168 62.0514 191.504C62.6274 189.824 62.9154 187.928 62.9154 185.816ZM83.8809 185.264C85.2249 185.264 86.4089 185.104 87.4329 184.784C88.4729 184.448 89.3369 183.984 90.0249 183.392C90.7289 182.784 91.2569 182.064 91.6089 181.232C91.9609 180.4 92.1369 179.48 92.1369 178.472C92.1369 176.424 91.4649 174.88 90.1209 173.84C88.7769 172.8 86.7609 172.28 84.0729 172.28H78.9849V185.264H83.8809ZM99.7689 203H95.6409C94.7929 203 94.1689 202.672 93.7689 202.016L84.8409 189.728C84.5689 189.344 84.2729 189.072 83.9529 188.912C83.6489 188.736 83.1689 188.648 82.5129 188.648H78.9849V203H74.3529V168.608H84.0729C86.2489 168.608 88.1289 168.832 89.7129 169.28C91.2969 169.712 92.6009 170.344 93.6249 171.176C94.6649 172.008 95.4329 173.016 95.9289 174.2C96.4249 175.368 96.6729 176.68 96.6729 178.136C96.6729 179.352 96.4809 180.488 96.0969 181.544C95.7129 182.6 95.1529 183.552 94.4169 184.4C93.6969 185.232 92.8089 185.944 91.7529 186.536C90.7129 187.128 89.5289 187.576 88.2009 187.88C88.7929 188.216 89.3049 188.704 89.7369 189.344L99.7689 203ZM132.311 168.608V203H129.983C129.615 203 129.303 202.936 129.047 202.808C128.807 202.68 128.567 202.464 128.327 202.16L108.431 176.24C108.463 176.64 108.487 177.032 108.503 177.416C108.519 177.8 108.527 178.16 108.527 178.496V203H104.447V168.608H106.847C107.055 168.608 107.231 168.624 107.375 168.656C107.519 168.672 107.647 168.712 107.759 168.776C107.871 168.824 107.983 168.904 108.095 169.016C108.207 169.112 108.327 169.24 108.455 169.4L128.351 195.296C128.319 194.88 128.287 194.48 128.255 194.096C128.239 193.696 128.231 193.32 128.231 192.968V168.608H132.311ZM162.319 199.208L162.295 203H141.103V168.608H162.295V172.4H145.759V183.824H159.151V187.472H145.759V199.208H162.319ZM188.318 199.088V203H168.806V168.608H173.438V199.088H188.318ZM198.118 203H193.462V168.608H198.118V203ZM220.187 199.304C221.611 199.304 222.883 199.064 224.003 198.584C225.123 198.104 226.067 197.432 226.835 196.568C227.619 195.704 228.211 194.672 228.611 193.472C229.027 192.272 229.235 190.952 229.235 189.512V168.608H233.867V189.512C233.867 191.496 233.547 193.336 232.907 195.032C232.283 196.728 231.379 198.2 230.195 199.448C229.027 200.68 227.595 201.648 225.899 202.352C224.203 203.056 222.299 203.408 220.187 203.408C218.075 203.408 216.171 203.056 214.475 202.352C212.779 201.648 211.339 200.68 210.155 199.448C208.971 198.2 208.059 196.728 207.419 195.032C206.795 193.336 206.483 191.496 206.483 189.512V168.608H211.115V189.488C211.115 190.928 211.315 192.248 211.715 193.448C212.131 194.648 212.723 195.68 213.491 196.544C214.275 197.408 215.227 198.088 216.347 198.584C217.483 199.064 218.763 199.304 220.187 199.304ZM259.804 173.984C259.66 174.224 259.5 174.408 259.324 174.536C259.164 174.648 258.964 174.704 258.724 174.704C258.452 174.704 258.132 174.568 257.764 174.296C257.396 174.024 256.932 173.728 256.372 173.408C255.828 173.072 255.164 172.768 254.38 172.496C253.612 172.224 252.676 172.088 251.572 172.088C250.532 172.088 249.612 172.232 248.812 172.52C248.028 172.792 247.364 173.168 246.82 173.648C246.292 174.128 245.892 174.696 245.62 175.352C245.348 175.992 245.212 176.688 245.212 177.44C245.212 178.4 245.444 179.2 245.908 179.84C246.388 180.464 247.012 181 247.78 181.448C248.564 181.896 249.444 182.288 250.42 182.624C251.412 182.944 252.42 183.28 253.444 183.632C254.484 183.984 255.492 184.384 256.468 184.832C257.46 185.264 258.34 185.816 259.108 186.488C259.892 187.16 260.516 187.984 260.98 188.96C261.46 189.936 261.7 191.136 261.7 192.56C261.7 194.064 261.444 195.48 260.932 196.808C260.42 198.12 259.668 199.264 258.676 200.24C257.7 201.216 256.492 201.984 255.052 202.544C253.628 203.104 252.004 203.384 250.18 203.384C247.94 203.384 245.908 202.984 244.084 202.184C242.26 201.368 240.7 200.272 239.404 198.896L240.748 196.688C240.876 196.512 241.028 196.368 241.204 196.256C241.396 196.128 241.604 196.064 241.828 196.064C242.036 196.064 242.268 196.152 242.524 196.328C242.796 196.488 243.1 196.696 243.436 196.952C243.772 197.208 244.156 197.488 244.588 197.792C245.02 198.096 245.508 198.376 246.052 198.632C246.612 198.888 247.244 199.104 247.948 199.28C248.652 199.44 249.444 199.52 250.324 199.52C251.428 199.52 252.412 199.368 253.276 199.064C254.14 198.76 254.868 198.336 255.46 197.792C256.068 197.232 256.532 196.568 256.852 195.8C257.172 195.032 257.332 194.176 257.332 193.232C257.332 192.192 257.092 191.344 256.612 190.688C256.148 190.016 255.532 189.456 254.764 189.008C253.996 188.56 253.116 188.184 252.124 187.88C251.132 187.56 250.124 187.24 249.1 186.92C248.076 186.584 247.068 186.2 246.076 185.768C245.084 185.336 244.204 184.776 243.436 184.088C242.668 183.4 242.044 182.544 241.564 181.52C241.1 180.48 240.868 179.2 240.868 177.68C240.868 176.464 241.1 175.288 241.564 174.152C242.044 173.016 242.732 172.008 243.628 171.128C244.54 170.248 245.652 169.544 246.964 169.016C248.292 168.488 249.812 168.224 251.524 168.224C253.444 168.224 255.188 168.528 256.756 169.136C258.34 169.744 259.732 170.624 260.932 171.776L259.804 173.984ZM56.347 231.828C56.107 229.572 55.315 227.82 53.971 226.572C52.651 225.324 50.947 224.7 48.859 224.7C47.587 224.7 46.387 224.976 45.259 225.528C44.155 226.056 43.183 226.824 42.343 227.832C41.503 228.84 40.843 230.052 40.363 231.468C39.883 232.884 39.643 234.48 39.643 236.256C39.643 238.512 40.075 240.504 40.939 242.232C41.803 243.96 42.967 245.304 44.431 246.264C45.895 247.224 47.515 247.704 49.291 247.704C50.851 247.704 52.387 247.356 53.899 246.66C55.411 245.94 56.647 244.908 57.607 243.564L58.543 244.32C57.511 245.736 56.395 246.828 55.195 247.596C53.995 248.364 52.795 248.88 51.595 249.144C50.419 249.432 49.339 249.576 48.355 249.576C46.555 249.576 44.899 249.252 43.387 248.604C41.899 247.956 40.603 247.056 39.499 245.904C38.419 244.728 37.579 243.372 36.979 241.836C36.403 240.276 36.115 238.596 36.115 236.796C36.115 235.092 36.367 233.436 36.871 231.828C37.399 230.22 38.179 228.768 39.211 227.472C40.243 226.176 41.539 225.144 43.099 224.376C44.683 223.608 46.519 223.224 48.607 223.224C49.951 223.224 51.223 223.404 52.423 223.764C53.623 224.124 54.775 224.676 55.879 225.42L55.699 223.476H57.643V231.828H56.347ZM72.7709 247.92C73.5149 247.92 74.0309 247.74 74.3189 247.38C74.6069 246.996 74.7749 246.48 74.8229 245.832C74.8709 245.16 74.8949 244.392 74.8949 243.528V238.488C74.8949 236.424 74.5589 234.876 73.8869 233.844C73.2389 232.812 72.2069 232.308 70.7909 232.332C69.9029 232.356 69.0269 232.572 68.1629 232.98C67.3229 233.388 66.6389 233.916 66.1109 234.564V245.184C66.1109 245.664 66.0989 246.096 66.0749 246.48C66.0509 246.84 66.0029 247.224 65.9309 247.632C66.3149 247.608 66.6869 247.596 67.0469 247.596C67.4309 247.572 67.8149 247.548 68.1989 247.524V249H60.8549V247.92C61.5989 247.92 62.1149 247.74 62.4029 247.38C62.6909 246.996 62.8589 246.48 62.9069 245.832C62.9789 245.16 63.0149 244.392 63.0149 243.528V226.5C63.0149 226.116 63.0149 225.756 63.0149 225.42C63.0389 225.06 63.0749 224.64 63.1229 224.16C62.6909 224.184 62.2589 224.208 61.8269 224.232C61.4189 224.256 60.9989 224.28 60.5669 224.304V222.792C61.6229 222.792 62.4389 222.744 63.0149 222.648C63.6149 222.552 64.0589 222.432 64.3469 222.288C64.6589 222.144 64.8989 221.988 65.0669 221.82H66.1109V232.8C66.6389 232.344 67.2269 231.948 67.8749 231.612C68.5469 231.252 69.2309 230.964 69.9269 230.748C70.6469 230.532 71.3429 230.424 72.0149 230.424C74.1029 230.424 75.6029 231.084 76.5149 232.404C77.4509 233.7 77.9309 235.728 77.9549 238.488L77.9909 245.184C77.9909 245.664 77.9789 246.096 77.9549 246.48C77.9549 246.84 77.9189 247.224 77.8469 247.632C78.2309 247.608 78.6029 247.596 78.9629 247.596C79.3469 247.572 79.7309 247.548 80.1149 247.524V249H72.7709V247.92ZM91.6936 249.576C90.0136 249.576 88.4896 249.192 87.1216 248.424C85.7536 247.632 84.6616 246.552 83.8456 245.184C83.0536 243.792 82.6576 242.208 82.6576 240.432C82.6576 238.536 83.0536 236.832 83.8456 235.32C84.6376 233.808 85.7176 232.62 87.0856 231.756C88.4536 230.868 89.9896 230.424 91.6936 230.424C93.3736 230.424 94.8976 230.832 96.2656 231.648C97.6336 232.44 98.7256 233.52 99.5416 234.888C100.358 236.256 100.766 237.816 100.766 239.568C100.766 241.416 100.358 243.108 99.5416 244.644C98.7496 246.156 97.6696 247.356 96.3016 248.244C94.9336 249.132 93.3976 249.576 91.6936 249.576ZM91.9816 248.136C93.2536 248.136 94.2616 247.776 95.0056 247.056C95.7496 246.336 96.2776 245.4 96.5896 244.248C96.9256 243.096 97.0936 241.884 97.0936 240.612C97.0936 239.532 96.9856 238.476 96.7696 237.444C96.5776 236.388 96.2656 235.44 95.8336 234.6C95.4016 233.736 94.8376 233.052 94.1416 232.548C93.4696 232.044 92.6536 231.792 91.6936 231.792C90.4456 231.792 89.4256 232.152 88.6336 232.872C87.8416 233.592 87.2536 234.528 86.8696 235.68C86.5096 236.832 86.3296 238.068 86.3296 239.388C86.3296 240.876 86.5336 242.292 86.9416 243.636C87.3496 244.956 87.9736 246.036 88.8136 246.876C89.6536 247.716 90.7096 248.136 91.9816 248.136ZM112.608 249.576C111 249.576 109.512 249.216 108.144 248.496C106.8 247.752 105.72 246.696 104.904 245.328C104.112 243.936 103.716 242.268 103.716 240.324C103.716 239.076 103.944 237.864 104.4 236.688C104.856 235.512 105.492 234.456 106.308 233.52C107.148 232.56 108.144 231.804 109.296 231.252C110.448 230.7 111.72 230.424 113.112 230.424C114.456 230.424 115.62 230.628 116.604 231.036C117.612 231.444 118.392 231.984 118.944 232.656C119.496 233.328 119.772 234.06 119.772 234.852C119.772 235.38 119.628 235.836 119.34 236.22C119.052 236.58 118.632 236.76 118.08 236.76C117.48 236.784 117.048 236.604 116.784 236.22C116.544 235.812 116.424 235.452 116.424 235.14C116.424 234.9 116.46 234.66 116.532 234.42C116.604 234.156 116.748 233.916 116.964 233.7C116.772 233.124 116.436 232.704 115.956 232.44C115.476 232.152 114.972 231.972 114.444 231.9C113.94 231.804 113.52 231.756 113.184 231.756C111.552 231.756 110.172 232.416 109.044 233.736C107.94 235.032 107.388 236.928 107.388 239.424C107.388 241.032 107.64 242.46 108.144 243.708C108.672 244.956 109.404 245.94 110.34 246.66C111.276 247.356 112.356 247.704 113.58 247.704C114.708 247.704 115.788 247.404 116.82 246.804C117.852 246.204 118.656 245.472 119.232 244.608L120.168 245.328C119.544 246.336 118.788 247.152 117.9 247.776C117.036 248.4 116.136 248.856 115.2 249.144C114.288 249.432 113.424 249.576 112.608 249.576ZM131.737 249.576C130.057 249.576 128.533 249.192 127.165 248.424C125.797 247.632 124.705 246.552 123.889 245.184C123.097 243.792 122.701 242.208 122.701 240.432C122.701 238.536 123.097 236.832 123.889 235.32C124.681 233.808 125.761 232.62 127.129 231.756C128.497 230.868 130.033 230.424 131.737 230.424C133.417 230.424 134.941 230.832 136.309 231.648C137.677 232.44 138.769 233.52 139.585 234.888C140.401 236.256 140.809 237.816 140.809 239.568C140.809 241.416 140.401 243.108 139.585 244.644C138.793 246.156 137.713 247.356 136.345 248.244C134.977 249.132 133.441 249.576 131.737 249.576ZM132.025 248.136C133.297 248.136 134.305 247.776 135.049 247.056C135.793 246.336 136.321 245.4 136.633 244.248C136.969 243.096 137.137 241.884 137.137 240.612C137.137 239.532 137.029 238.476 136.813 237.444C136.621 236.388 136.309 235.44 135.877 234.6C135.445 233.736 134.881 233.052 134.185 232.548C133.513 232.044 132.697 231.792 131.737 231.792C130.489 231.792 129.469 232.152 128.677 232.872C127.885 233.592 127.297 234.528 126.913 235.68C126.553 236.832 126.373 238.068 126.373 239.388C126.373 240.876 126.577 242.292 126.985 243.636C127.393 244.956 128.017 246.036 128.857 246.876C129.697 247.716 130.753 248.136 132.025 248.136ZM143.507 247.92C144.251 247.92 144.767 247.74 145.055 247.38C145.343 246.996 145.511 246.48 145.559 245.832C145.607 245.16 145.631 244.392 145.631 243.528V226.5C145.631 226.116 145.631 225.756 145.631 225.42C145.655 225.06 145.691 224.64 145.739 224.16C145.307 224.184 144.875 224.208 144.443 224.232C144.035 224.256 143.615 224.28 143.183 224.304V222.792C144.239 222.792 145.055 222.744 145.631 222.648C146.231 222.552 146.675 222.432 146.963 222.288C147.275 222.144 147.515 221.988 147.683 221.82H148.727L148.763 245.184C148.763 245.664 148.751 246.096 148.727 246.48C148.703 246.84 148.655 247.224 148.583 247.632C148.967 247.608 149.339 247.596 149.699 247.596C150.083 247.572 150.467 247.548 150.851 247.524V249H143.507V247.92ZM164.62 249C164.548 248.592 164.5 248.232 164.476 247.92C164.452 247.608 164.416 247.284 164.368 246.948C163.552 247.764 162.664 248.412 161.704 248.892C160.768 249.348 159.772 249.576 158.716 249.576C156.892 249.576 155.536 249.168 154.648 248.352C153.76 247.512 153.316 246.492 153.316 245.292C153.316 244.188 153.652 243.24 154.324 242.448C155.02 241.632 155.908 240.972 156.988 240.468C158.092 239.94 159.28 239.556 160.552 239.316C161.848 239.052 163.096 238.932 164.296 238.956V236.724C164.296 235.884 164.224 235.092 164.08 234.348C163.936 233.604 163.624 232.992 163.144 232.512C162.664 232.032 161.896 231.78 160.84 231.756C160.144 231.732 159.424 231.864 158.68 232.152C157.96 232.44 157.432 232.932 157.096 233.628C157.288 233.82 157.408 234.048 157.456 234.312C157.528 234.552 157.564 234.78 157.564 234.996C157.564 235.284 157.444 235.62 157.204 236.004C156.964 236.364 156.544 236.532 155.944 236.508C155.44 236.508 155.056 236.34 154.792 236.004C154.528 235.644 154.396 235.224 154.396 234.744C154.396 233.928 154.696 233.196 155.296 232.548C155.92 231.9 156.772 231.384 157.852 231C158.932 230.616 160.156 230.424 161.524 230.424C163.54 230.424 165.028 230.964 165.988 232.044C166.948 233.1 167.416 234.78 167.392 237.084C167.392 237.972 167.392 238.872 167.392 239.784C167.392 240.672 167.38 241.572 167.356 242.484C167.356 243.372 167.356 244.272 167.356 245.184C167.356 245.568 167.344 245.952 167.32 246.336C167.296 246.72 167.26 247.152 167.212 247.632C167.644 247.608 168.064 247.584 168.472 247.56C168.904 247.536 169.336 247.512 169.768 247.488V249H164.62ZM164.296 240.18C163.48 240.204 162.616 240.312 161.704 240.504C160.816 240.672 159.988 240.936 159.22 241.296C158.476 241.656 157.864 242.136 157.384 242.736C156.928 243.312 156.712 244.02 156.736 244.86C156.784 245.748 157.072 246.42 157.6 246.876C158.152 247.308 158.8 247.524 159.544 247.524C160.528 247.524 161.38 247.344 162.1 246.984C162.844 246.6 163.576 246.072 164.296 245.4C164.272 245.136 164.26 244.848 164.26 244.536C164.26 244.224 164.26 243.9 164.26 243.564C164.26 243.444 164.26 243.06 164.26 242.412C164.284 241.764 164.296 241.02 164.296 240.18ZM178.76 249.576C178.208 249.576 177.644 249.492 177.068 249.324C176.492 249.18 175.952 248.88 175.448 248.424C174.968 247.968 174.584 247.308 174.296 246.444C174.008 245.556 173.864 244.392 173.864 242.952L173.936 232.512L171.164 232.548V231C171.788 230.976 172.424 230.748 173.072 230.316C173.72 229.86 174.296 229.248 174.8 228.48C175.328 227.712 175.688 226.872 175.88 225.96H177.104V231H183.152V232.404L177.104 232.476L177.032 242.484C177.032 243.564 177.116 244.488 177.284 245.256C177.476 246 177.776 246.564 178.184 246.948C178.592 247.332 179.12 247.524 179.768 247.524C180.44 247.524 181.064 247.332 181.64 246.948C182.24 246.564 182.768 246.036 183.224 245.364L184.196 246.156C183.668 246.948 183.14 247.572 182.612 248.028C182.108 248.484 181.616 248.82 181.136 249.036C180.656 249.276 180.212 249.42 179.804 249.468C179.396 249.54 179.048 249.576 178.76 249.576ZM185.914 247.92C186.658 247.92 187.174 247.74 187.462 247.38C187.75 246.996 187.918 246.48 187.966 245.832C188.014 245.16 188.038 244.392 188.038 243.528V235.32C188.038 234.936 188.05 234.576 188.074 234.24C188.098 233.88 188.134 233.46 188.182 232.98C187.75 233.004 187.318 233.028 186.886 233.052C186.478 233.076 186.058 233.1 185.626 233.124V231.612C186.682 231.612 187.498 231.564 188.074 231.468C188.65 231.372 189.082 231.252 189.37 231.108C189.682 230.964 189.922 230.808 190.09 230.64H191.134V245.184C191.134 245.664 191.122 246.096 191.098 246.48C191.098 246.84 191.062 247.224 190.99 247.632C191.374 247.608 191.746 247.596 192.106 247.596C192.49 247.572 192.874 247.548 193.258 247.524V249H185.914V247.92ZM189.406 227.076C188.902 227.076 188.458 226.872 188.074 226.464C187.69 226.056 187.498 225.552 187.498 224.952C187.498 224.352 187.69 223.848 188.074 223.44C188.482 223.008 188.938 222.792 189.442 222.792C189.994 222.792 190.45 223.008 190.81 223.44C191.194 223.848 191.386 224.352 191.386 224.952C191.386 225.552 191.182 226.056 190.774 226.464C190.39 226.872 189.934 227.076 189.406 227.076ZM204.751 249.576C203.095 249.576 201.595 249.192 200.251 248.424C198.931 247.632 197.887 246.528 197.119 245.112C196.351 243.672 195.967 241.98 195.967 240.036C195.967 238.356 196.339 236.784 197.083 235.32C197.851 233.856 198.919 232.68 200.287 231.792C201.655 230.88 203.239 230.424 205.039 230.424C206.047 230.424 206.983 230.592 207.847 230.928C208.735 231.24 209.515 231.732 210.187 232.404C210.859 233.052 211.387 233.88 211.771 234.888C212.155 235.872 212.347 237.036 212.347 238.38L199.675 238.596C199.675 240.42 199.867 242.028 200.251 243.42C200.659 244.788 201.307 245.856 202.195 246.624C203.083 247.368 204.223 247.74 205.615 247.74C206.359 247.74 207.115 247.608 207.883 247.344C208.675 247.08 209.407 246.72 210.079 246.264C210.751 245.808 211.291 245.304 211.699 244.752L212.563 245.472C211.915 246.48 211.135 247.284 210.223 247.884C209.311 248.484 208.375 248.916 207.415 249.18C206.455 249.444 205.567 249.576 204.751 249.576ZM199.783 237.084H208.963C208.963 236.22 208.831 235.392 208.567 234.6C208.327 233.784 207.919 233.124 207.343 232.62C206.767 232.092 206.011 231.828 205.075 231.828C203.683 231.828 202.519 232.248 201.583 233.088C200.671 233.904 200.071 235.236 199.783 237.084ZM215.551 247.92C216.295 247.92 216.811 247.74 217.099 247.38C217.387 246.996 217.555 246.48 217.603 245.832C217.651 245.16 217.675 244.392 217.675 243.528V235.32C217.675 234.936 217.675 234.552 217.675 234.168C217.699 233.784 217.747 233.388 217.819 232.98C217.387 233.004 216.955 233.028 216.523 233.052C216.115 233.052 215.695 233.064 215.263 233.088V231.612H216.379C217.411 231.612 218.119 231.516 218.503 231.324C218.911 231.108 219.247 230.88 219.511 230.64H220.555C220.603 231.024 220.639 231.504 220.663 232.08C220.687 232.632 220.711 233.34 220.735 234.204C221.095 233.604 221.587 233.016 222.211 232.44C222.835 231.864 223.531 231.384 224.299 231C225.091 230.616 225.919 230.424 226.783 230.424C227.455 230.424 228.043 230.604 228.547 230.964C229.051 231.324 229.303 231.9 229.303 232.692C229.303 232.884 229.243 233.124 229.123 233.412C229.003 233.676 228.811 233.916 228.547 234.132C228.283 234.324 227.935 234.42 227.503 234.42C226.975 234.396 226.555 234.192 226.243 233.808C225.931 233.4 225.811 232.932 225.883 232.404C225.283 232.38 224.659 232.536 224.011 232.872C223.387 233.208 222.799 233.676 222.247 234.276C221.695 234.852 221.203 235.536 220.771 236.328L220.807 245.184C220.807 245.664 220.795 246.096 220.771 246.48C220.771 246.84 220.735 247.224 220.663 247.632C221.047 247.608 221.419 247.596 221.779 247.596C222.163 247.572 222.547 247.548 222.931 247.524V249H215.551V247.92Z" fill="white"/>
<path d="M211 145C216.5 142.5 207 78.5 184 54.5C161 30.5 144 18.5 131.5 12C119 5.50001 105 4.00001 102 4.00001C99 4.00001 93.5723 3.75946 89 6.00001M211 145C205.5 147.5 164.667 149.803 139 138C122.135 130.245 112.689 121.836 102 109.536M211 145L196 100C196 100 177.336 65.8664 160 48.5C140.716 29.183 102 9.5 102 9.5L89 6.00001M211 145C211 145 195.091 122.034 184 108C163.859 82.5159 152.467 67.8652 128 46.5C110.968 31.6272 81.5 12 81.5 12M211 145C211 145 171.155 123.07 148.5 105C128.85 89.3269 117.271 80.4641 102 60.5C90.6675 45.6849 77.5 19.5 77.5 19.5M211 145C211 145 181.527 142.092 164 135.5C149.034 129.872 140.919 125.42 128 116C116.835 107.859 110.883 102.584 102 92C93.1905 81.5038 89.3654 74.635 83 62.5C75.6731 48.5323 68 25 68 25M89 6.00001C85.4023 7.76297 81.5 12 81.5 12M81.5 12L68 5.00001C68 5.00001 60.5799 -0.647769 57 2.00001C52.568 5.27802 62.5 15 62.5 15L72 19.5M81.5 12L77.5 19.5M72 19.5C72 19.5 69.3064 22.6877 68 25M72 19.5H77.5M68 25C63.4601 33.0353 64.8935 39.2909 65.5 48.5C65.7377 52.1091 66.245 55.4176 66.9882 58.5M30 133.5C30 133.5 50.0831 136.128 62.5 133.5C75.7486 130.696 84.1386 128.281 94 119C97.5241 115.683 102 109.536 102 109.536M30 133.5C30 133.5 29.2927 114.81 32.5 103.5C35.3352 93.5012 37.9318 87.9375 44 79.5C51.0995 69.6284 66.9882 58.5 66.9882 58.5M30 133.5C30 133.5 35.9206 114.738 41.5 103.5C46.3693 93.6918 49.0043 87.9244 56 79.5C60.7238 73.8114 69.5 66.2242 69.5 66.2242M30 133.5C30 133.5 38.2329 121.391 44 114C50.6447 105.484 54.7895 101.042 62 93C67.3687 87.0118 76 77.8965 76 77.8965M30 133.5C30 133.5 50.0547 122.454 62 114C72.6822 106.44 88.115 93 88.115 93M30 133.5C30 133.5 44.5217 132.342 53.5 130C64.5171 127.127 71.0782 125.392 80.5 119C87.7895 114.054 96.8879 103.5 96.8879 103.5M102 109.536C100.337 107.622 98.6438 105.614 96.8879 103.5M66.9882 58.5C67.6477 61.2354 68.4928 63.7928 69.5 66.2242M69.5 66.2242C71.2292 70.3987 73.4359 74.2017 76 77.8965M76 77.8965C79.48 82.911 83.6183 87.726 88.115 93M88.115 93C90.02 95.2343 91.9892 97.5509 94 100C94.9841 101.199 95.945 102.365 96.8879 103.5" stroke="white" stroke-width="1.5"/>
</svg>
